<?xml version="1.0" standalone="no"?>
<!DOCTYPE svg PUBLIC "-//W3C//DTD SVG 20010904//EN"
 "http://www.w3.org/TR/2001/REC-SVG-20010904/DTD/svg10.dtd">
<svg version="1.0" xmlns="http://www.w3.org/2000/svg"
 width="1000.000000pt" height="1000.000000pt" viewBox="0 0 1000.000000 1000.000000"
 preserveAspectRatio="xMidYMid meet">
<metadata>
Created by potrace 1.11, written by Peter Selinger 2001-2013
</metadata>
<g transform="translate(0.000000,1000.000000) scale(0.100000,-0.100000)"
fill="#000000" stroke="none">
<path d="M4967 9804 c-1 -1 -22 -5 -47 -9 -79 -12 -162 -59 -242 -138 -72 -72
-191 -196 -618 -646 -80 -84 -170 -179 -200 -211 -65 -67 -348 -365 -404 -424
-21 -23 -79 -84 -130 -136 -50 -53 -163 -171 -251 -264 -88 -93 -182 -192
-210 -221 -27 -29 -113 -119 -190 -200 -147 -154 -190 -199 -339 -356 -128
-133 -405 -426 -452 -475 -21 -23 -112 -118 -200 -210 -89 -93 -177 -185 -195
-205 -35 -38 -297 -312 -384 -404 -71 -73 -375 -394 -466 -490 -42 -44 -89
-96 -105 -115 -88 -106 -122 -251 -94 -401 16 -87 64 -171 148 -261 91 -96
101 -106 303 -319 86 -90 180 -189 209 -219 29 -30 121 -127 205 -215 84 -88
167 -176 185 -195 40 -43 275 -292 387 -409 44 -47 98 -104 119 -126 20 -22
124 -130 229 -240 106 -110 207 -216 225 -235 29 -31 215 -226 496 -520 50
-52 113 -118 140 -147 94 -99 329 -347 378 -397 26 -28 80 -85 120 -126 39
-42 123 -130 186 -196 63 -66 185 -194 270 -283 85 -90 178 -187 205 -216 28
-29 118 -123 200 -211 251 -265 298 -309 368 -342 81 -39 170 -53 254 -39 111
18 183 63 301 186 40 42 139 145 220 230 81 85 170 178 197 207 28 29 113 119
190 200 77 81 163 171 190 199 28 29 109 115 181 191 73 77 158 166 189 199
32 33 128 134 214 224 86 91 174 184 196 206 22 23 112 118 200 210 88 93 180
190 205 216 25 26 113 118 195 205 83 87 196 205 251 263 56 58 116 122 134
141 28 30 187 198 389 409 78 82 193 202 391 411 96 101 218 229 271 284 53
56 112 117 130 137 19 20 104 109 189 199 174 182 210 228 241 309 31 80 36
228 9 313 -18 57 -63 142 -93 173 -7 7 -77 81 -157 165 -80 83 -165 173 -190
199 -65 68 -349 367 -390 411 -19 20 -112 118 -206 216 -93 98 -185 195 -203
214 -18 19 -106 111 -194 204 -89 93 -175 183 -192 200 -111 117 -358 377
-395 416 -25 26 -115 121 -200 211 -85 89 -196 206 -247 259 -50 52 -106 111
-125 131 -18 19 -108 114 -200 210 -91 96 -183 192 -204 214 -20 22 -107 114
-193 204 -86 89 -174 182 -196 205 -34 36 -241 254 -405 426 -25 26 -117 123
-206 216 -88 93 -182 193 -209 222 -93 100 -203 157 -318 164 -32 2 -59 3 -60
2z m100 -3393 c32 -32 180 -183 328 -336 347 -356 412 -422 755 -774 157 -161
285 -296 285 -301 0 -5 -128 -140 -285 -300 -157 -161 -316 -324 -354 -363
-38 -40 -218 -225 -401 -412 -183 -187 -345 -352 -359 -368 -14 -15 -29 -27
-35 -27 -11 0 -11 0 -381 380 -415 425 -487 499 -785 805 -148 152 -270 280
-270 285 0 5 129 141 286 302 158 161 321 329 364 373 43 44 218 224 390 400
172 176 328 336 347 356 18 20 38 37 45 38 7 1 38 -26 70 -58z"/>
</g>
</svg>
